<svg xmlns="http://www.w3.org/2000/svg" viewBox="0 0 960 560" role="img" aria-labelledby="title desc">
  <title id="title">Medical AI academic knowledge network</title>
  <desc id="desc">A restrained academic illustration showing papers, clinical data, AI nodes, and community collaboration.</desc>
  <rect width="960" height="560" fill="#f7f9fb"/>
  <rect x="74" y="66" width="812" height="428" rx="18" fill="#ffffff" stroke="#d8e0e8"/>
  <g fill="none" stroke="#d8e0e8" stroke-width="2">
    <path d="M238 178 C338 94 486 112 580 190 S752 312 816 210"/>
    <path d="M154 354 C276 254 390 386 496 288 S690 170 780 350"/>
    <path d="M262 420 C348 326 458 438 548 344 S698 294 774 430"/>
    <path d="M210 226 L384 266 L552 204 L722 278"/>
  </g>
  <g>
    <rect x="122" y="132" width="180" height="120" rx="10" fill="#eef4f3" stroke="#b9d2cf"/>
    <rect x="142" y="154" width="84" height="10" rx="5" fill="#1f4e79"/>
    <rect x="142" y="180" width="126" height="8" rx="4" fill="#7d8b99"/>
    <rect x="142" y="200" width="110" height="8" rx="4" fill="#9aa8b4"/>
    <rect x="142" y="220" width="136" height="8" rx="4" fill="#9aa8b4"/>
  </g>
  <g>
    <rect x="618" y="138" width="202" height="132" rx="10" fill="#ffffff" stroke="#d8e0e8"/>
    <path d="M656 226 C668 196 682 220 694 190 C708 154 724 216 738 176 C752 138 770 206 786 168" fill="none" stroke="#2a9d8f" stroke-width="5" stroke-linecap="round"/>
    <rect x="646" y="238" width="142" height="8" rx="4" fill="#a7b3bd"/>
  </g>
  <g>
    <rect x="334" y="170" width="220" height="170" rx="14" fill="#1f4e79"/>
    <circle cx="444" cy="244" r="42" fill="#ffffff" opacity="0.96"/>
    <path d="M427 244h34M444 227v34" stroke="#1f4e79" stroke-width="8" stroke-linecap="round"/>
    <rect x="374" y="296" width="140" height="10" rx="5" fill="#d9ece9"/>
  </g>
  <g fill="#ffffff" stroke="#2a9d8f" stroke-width="4">
    <circle cx="238" cy="178" r="16"/>
    <circle cx="384" cy="266" r="16"/>
    <circle cx="552" cy="204" r="16"/>
    <circle cx="722" cy="278" r="16"/>
    <circle cx="496" cy="288" r="16"/>
    <circle cx="774" cy="430" r="16"/>
    <circle cx="262" cy="420" r="16"/>
  </g>
  <g>
    <rect x="134" y="330" width="190" height="92" rx="10" fill="#ffffff" stroke="#d8e0e8"/>
    <rect x="156" y="354" width="92" height="9" rx="4.5" fill="#b08900"/>
    <rect x="156" y="378" width="138" height="7" rx="3.5" fill="#9aa8b4"/>
    <rect x="156" y="396" width="108" height="7" rx="3.5" fill="#9aa8b4"/>
  </g>
  <g>
    <rect x="590" y="334" width="226" height="92" rx="10" fill="#eef4f3" stroke="#b9d2cf"/>
    <circle cx="632" cy="380" r="18" fill="#2a9d8f"/>
    <circle cx="682" cy="380" r="18" fill="#1f4e79"/>
    <circle cx="732" cy="380" r="18" fill="#b08900"/>
    <rect x="620" y="410" width="150" height="7" rx="3.5" fill="#8795a1"/>
  </g>
</svg>
