<svg xmlns="http://www.w3.org/2000/svg" viewBox="0 0 480 300" role="img" aria-labelledby="title desc">
  <title id="title">Medical AI popular science thumbnail</title>
  <desc id="desc">A popular science cover with a public guide card, shield, and AI explanation bubbles.</desc>
  <rect width="480" height="300" fill="#f2f7f3"/>
  <rect x="34" y="30" width="412" height="240" rx="16" fill="#ffffff" stroke="#d5e2d9"/>
  <rect x="70" y="70" width="170" height="160" rx="12" fill="#f8fbfc" stroke="#d8e2e8"/>
  <rect x="96" y="98" width="86" height="10" rx="5" fill="#2a9d8f"/>
  <rect x="96" y="130" width="110" height="8" rx="4" fill="#93a2ac"/>
  <rect x="96" y="154" width="82" height="8" rx="4" fill="#b0bac2"/>
  <rect x="96" y="178" width="98" height="8" rx="4" fill="#b0bac2"/>
  <path d="M330 76l70 30v50c0 46-28 70-70 88-42-18-70-42-70-88v-50z" fill="#edf6f4" stroke="#2a9d8f" stroke-width="5"/>
  <path d="M308 153l18 18 38-54" fill="none" stroke="#185f79" stroke-width="10" stroke-linecap="round" stroke-linejoin="round"/>
  <circle cx="286" cy="222" r="16" fill="#185f79"/>
  <circle cx="330" cy="236" r="16" fill="#b08900"/>
  <circle cx="374" cy="222" r="16" fill="#2a9d8f"/>
</svg>
